<?xml version="1.0" encoding="UTF-8"?>
<svg version="1.1" xmlns="http://www.w3.org/2000/svg" width="1060" height="220">
<path d="M0 0 C0.66 0.66 1.32 1.32 2 2 C3.97024144 2.31244233 3.97024144 2.31244233 6.1875 2.375 C10.82193531 2.8451601 14.65992618 3.56062669 18 7 C21.48084254 13.7816415 21.41313716 19.77036102 19.46484375 26.98046875 C18.8125 28.875 18.8125 28.875 17 32 C13.8125 33.4375 13.8125 33.4375 11 34 C11 34.66 11 35.32 11 36 C11.66 36 12.32 36 13 36 C13.268125 36.78375 13.53625 37.5675 13.8125 38.375 C14.84814432 41.28114923 14.84814432 41.28114923 18 43 C18.52040918 45.54942026 18.87947892 47.92443573 19.125 50.5 C19.48975312 55.3983922 19.48975312 55.3983922 21 60 C21.04022391 62.3329866 21.04320247 64.66706666 21 67 C19 67 17 67 15 67 C14.32532438 65.25307205 13.66055844 63.50231475 13 61.75 C12.62875 60.77546875 12.2575 59.8009375 11.875 58.796875 C11 56 11 56 11 52 C6.08417923 50.48046291 6.08417923 50.48046291 1 50 C1.01160156 51.21558594 1.02320313 52.43117187 1.03515625 53.68359375 C1.04453278 55.26822764 1.05363313 56.85286318 1.0625 58.4375 C1.07087891 59.23994141 1.07925781 60.04238281 1.08789062 60.86914062 C1.0965143 62.91295221 1.0522815 64.95683902 1 67 C0.505 67.495 0.505 67.495 0 68 C-1.69141656 67.91036938 -3.37959602 67.75422324 -5.0625 67.5625 C-5.98160156 67.46066406 -6.90070313 67.35882813 -7.84765625 67.25390625 C-8.55792969 67.17011719 -9.26820313 67.08632812 -10 67 C-12.4634604 61.25192573 -13.15381963 56.25107736 -13.1875 50 C-13.20167969 48.80375 -13.21585938 47.6075 -13.23046875 46.375 C-13.00410796 43.06015731 -12.23993016 41.03254236 -11 38 C-10.46696632 32.46891025 -10.00191867 26.9562394 -12.5625 21.9375 C-15.22815954 16.49028269 -13.85681604 9.93230733 -12.1953125 4.24609375 C-10.76929629 1.56648812 -9.90163151 1.06609015 -7.0625 0.125 C-6.37285156 -0.11992187 -5.68320313 -0.36484375 -4.97265625 -0.6171875 C-3 -1 -3 -1 0 0 Z M1 14 C1.33 17.63 1.66 21.26 2 25 C5.70488428 24.07377893 7.16604069 23.32789515 10 21 C9.67 19.02 9.34 17.04 9 15 C4.98851482 13.1786782 4.98851482 13.1786782 1 14 Z " fill="#000000" transform="translate(187,1)"/>
<path d="M0 0 C3.06838386 1.33407994 4.65344789 2.79042445 6.875 5.25 C7.535 5.58 8.195 5.91 8.875 6.25 C11.65757625 13.91446269 11.28015343 22.59941455 11.30053711 30.65185547 C11.31237134 32.85109055 11.36163665 35.04745254 11.41210938 37.24609375 C11.52756868 47.39713982 10.7744184 59.72796601 4.43530273 68.16650391 C1.50964778 70.19811972 -1.77164878 69.769452 -5.125 69.25 C-8.38569808 68.29789663 -11.31187467 67.17250705 -14.125 65.25 C-15.1875 62.5 -15.1875 62.5 -15.125 60.25 C-15.785 60.25 -16.445 60.25 -17.125 60.25 C-21.72513002 40.80309841 -21.93543779 23.40570756 -15.125 4.25 C-11.25988278 -1.56400731 -6.29688713 -1.51125291 0 0 Z M-6.125 18.25 C-6.24875 18.889375 -6.3725 19.52875 -6.5 20.1875 C-6.70625 20.868125 -6.9125 21.54875 -7.125 22.25 C-8.115 22.745 -8.115 22.745 -9.125 23.25 C-10.16071209 27.18826324 -10.61135022 31.21488584 -11.125 35.25 C-11.2590625 36.04535156 -11.393125 36.84070313 -11.53125 37.66015625 C-12.20429797 44.28246754 -8.86262292 48.11332099 -4.875 53.16015625 C-4.2975 53.84980469 -3.72 54.53945313 -3.125 55.25 C-2.135 54.755 -2.135 54.755 -1.125 54.25 C-0.46944881 51.72266765 -0.46944881 51.72266765 -0.125 49.25 C0.535 49.25 1.195 49.25 1.875 49.25 C2.90331468 41.41257462 3.88425092 32.76089458 0.875 25.25 C-1.61228917 24.04453323 -1.61228917 24.04453323 -4.125 23.25 C-4.9375 20.625 -4.9375 20.625 -5.125 18.25 C-5.455 18.25 -5.785 18.25 -6.125 18.25 Z " fill="#000000" transform="translate(268.125,0.75)"/>
<path d="M0 0 C2.9375 -0.1875 2.9375 -0.1875 6 0 C6.99 0 7.98 0 9 0 C9.99 0.33 10.98 0.66 12 1 C12 1.66 12 2.32 12 3 C12.66 3 13.32 3 14 3 C21.13936688 19.59494057 21.13936688 19.59494057 20.9375 26.75 C20.81752624 31.67642269 21.87777855 35.79183962 23.265625 40.4921875 C24.8764806 45.99308802 25.13487686 51.42329727 25.3125 57.125 C25.36857422 58.89230469 25.36857422 58.89230469 25.42578125 60.6953125 C24.92016107 64.6196673 23.79459631 66.25206671 21 69 C20.34 69 19.68 69 19 69 C18.67 66.69 18.34 64.38 18 62 C16.02 62.495 16.02 62.495 14 63 C13.67 60.69 13.34 58.38 13 56 C12.34 56 11.68 56 11 56 C10.34 54.02 9.68 52.04 9 50 C5.72689105 50.72154312 5.72689105 50.72154312 4.3125 53.9375 C2.47289818 58.53650456 2.73523231 63.12631335 3 68 C2.01 68.495 2.01 68.495 1 69 C0.34 68.67 -0.32 68.34 -1 68 C-1 67.34 -1 66.68 -1 66 C-3.38564077 66.57584432 -5.66682784 67.22227595 -8 68 C-10.52575046 50.3197468 -8.83778606 36.77006692 -0.6015625 20.83203125 C0.15706517 18.52166518 -0.17813157 17.25772092 -1 15 C-1.33 14.67 -1.66 14.34 -2 14 C-2.12524459 12.21162378 -2.17573676 10.41771786 -2.1875 8.625 C-2.20167969 7.64789062 -2.21585938 6.67078125 -2.23046875 5.6640625 C-2 3 -2 3 0 0 Z M10 20 C6.71960616 21.69912612 6.71960616 21.69912612 6.26953125 24.96875 C6.11871094 26.1340625 5.96789062 27.299375 5.8125 28.5 C5.65394531 29.6653125 5.49539062 30.830625 5.33203125 32.03125 C4.9629503 34.83339127 4.9629503 34.83339127 5 37 C6.98 37 8.96 37 11 37 C11.91631618 31.1966642 12.73706168 25.47412335 10 20 Z " fill="#000000" transform="translate(145,1)"/>
<path d="M0 0 C8.10429954 10.82240824 7.10273929 26.21983203 6 39 C5.69975052 40.34117081 5.37799909 41.67863496 5 43 C8.24170493 41.30356244 8.24170493 41.30356244 8.82788086 38.16186523 C9.03807861 36.97278564 9.24827637 35.78370605 9.46484375 34.55859375 C9.58428848 33.91688736 9.70373322 33.27518097 9.82679749 32.61402893 C10.20905926 30.55716922 10.57502758 28.49793295 10.9375 26.4375 C14.41974941 6.71101495 14.41974941 6.71101495 18 2 C20.12866211 1.27514648 20.12866211 1.27514648 22 1 C24.06949865 3.24195687 24.94914743 4.63555661 25.375 7.6875 C24.97342731 11.23472542 24.00380665 14.13545877 22.80078125 17.4765625 C21.40120602 21.88693127 20.72481543 26.4379264 20 31 C18.515 31.495 18.515 31.495 17 32 C17.02320313 32.59425781 17.04640625 33.18851563 17.0703125 33.80078125 C17.29909876 44.30860737 15.95374596 56.06938106 10 65 C8.25 65.9375 8.25 65.9375 6 66 C2.8125 64.5625 2.8125 64.5625 0 62 C-0.46484375 60.01953125 -0.46484375 60.01953125 -0.625 57.875 C-0.74875 56.59625 -0.8725 55.3175 -1 54 C-2.95461791 52.71489283 -2.95461791 52.71489283 -5 52 C-4.98259766 51.01773438 -4.98259766 51.01773438 -4.96484375 50.015625 C-4.86066671 39.47886118 -5.26763628 29.91468926 -9 20 C-9.70812814 17.67891331 -10.38024152 15.34622853 -11 13 C-11.268125 12.01 -11.53625 11.02 -11.8125 10 C-12.07406879 5.81489929 -11.01600267 3.67200486 -9 0 C-5.3775706 -1.20747647 -3.63866473 -1.13296925 0 0 Z " fill="#000000" transform="translate(220,2)"/>
</svg>
