<?xml version="1.0" encoding="UTF-8"?>
<svg version="1.1" xmlns="http://www.w3.org/2000/svg" width="1060" height="220">
<path d="M0 0 C0.66 0.66 1.32 1.32 2 2 C4.5327019 2.34319631 7.0373984 2.4420609 9.58984375 2.55859375 C12.42001433 3.07692321 13.1226407 3.90869662 15 6 C15.99 6.33 16.98 6.66 18 7 C21.2902192 13.69794622 21.63764226 19.93728888 19.359375 26.98046875 C18.01269837 30.45460794 17.15907498 31.89395001 14 34 C13.01 34 12.02 34 11 34 C11 34.66 11 35.32 11 36 C11.66 36 12.32 36 13 36 C13.12375 37.175625 13.12375 37.175625 13.25 38.375 C13.4975 39.24125 13.745 40.1075 14 41 C14.65097656 41.23976562 15.30195313 41.47953125 15.97265625 41.7265625 C18 43 18 43 18.79296875 46.1875 C18.98826172 48.0746875 18.98826172 48.0746875 19.1875 50 C19.54498607 54.65745324 19.54498607 54.65745324 21 59 C21.06950541 60.54023996 21.08452357 62.08334988 21.0625 63.625 C21.05347656 64.44226563 21.04445312 65.25953125 21.03515625 66.1015625 C21.02355469 66.72804688 21.01195312 67.35453125 21 68 C18.03 67.505 18.03 67.505 15 67 C14.32532438 65.25307205 13.66055844 63.50231475 13 61.75 C12.62875 60.77546875 12.2575 59.8009375 11.875 58.796875 C11 56 11 56 11 52 C10.236875 51.855625 9.47375 51.71125 8.6875 51.5625 C6 51 6 51 3 50 C0.95649549 52.04350451 1.63104366 56.175281 1.5 59 C1.13513514 66.86486486 1.13513514 66.86486486 0 68 C-1.69141656 67.91036938 -3.37959602 67.75422324 -5.0625 67.5625 C-5.98160156 67.46066406 -6.90070313 67.35882813 -7.84765625 67.25390625 C-8.55792969 67.17011719 -9.26820313 67.08632812 -10 67 C-12.4634604 61.25192573 -13.15381963 56.25107736 -13.1875 50 C-13.20167969 48.80375 -13.21585938 47.6075 -13.23046875 46.375 C-13.00406801 43.05957224 -12.23843128 41.03367662 -11 38 C-10.64820165 34.81739 -10.64820165 34.81739 -10.6875 31.5 C-10.67074219 30.3965625 -10.65398437 29.293125 -10.63671875 28.15625 C-10.77929809 24.96613793 -10.77929809 24.96613793 -12.53125 22.5 C-14.45047835 19.23322834 -14.18333285 17.23450489 -13.8125 13.5 C-13.71582031 12.3965625 -13.61914062 11.293125 -13.51953125 10.15625 C-13.01592412 7.09674204 -12.47402146 4.726458 -11 2 C-9.16015625 0.8203125 -9.16015625 0.8203125 -7.0625 0.125 C-6.37285156 -0.11992187 -5.68320313 -0.36484375 -4.97265625 -0.6171875 C-3 -1 -3 -1 0 0 Z M1 14 C1.33 17.63 1.66 21.26 2 25 C5.70488428 24.07377893 7.16604069 23.32789515 10 21 C9.72459296 17.18186553 9.72459296 17.18186553 8 14 C5.66702567 13.95907063 3.33294775 13.95758277 1 14 Z " fill="#EBEBEB" transform="translate(187,1)"/>
<path d="M0 0 C0.33 1.32 0.66 2.64 1 4 C1.99 4 2.98 4 4 4 C4 4.66 4 5.32 4 6 C4.66 6 5.32 6 6 6 C8.26355789 14.33253623 8.33987807 22.64801085 8.31567383 31.21362305 C8.31250135 33.56150261 8.33608903 35.90813356 8.36132812 38.25585938 C8.39379724 46.02081395 8.12418783 52.76178264 5 60 C4.73928711 60.66193359 4.47857422 61.32386719 4.20996094 62.00585938 C3.08716274 64.8135646 2.1571532 66.8428468 0 69 C-4.84860624 69.24243031 -9.2250791 68.95498418 -14 68 C-14 67.34 -14 66.68 -14 66 C-14.598125 65.835 -15.19625 65.67 -15.8125 65.5 C-21.32810257 61.71787252 -21.95558787 52.5846337 -23.14770508 46.36132812 C-25.35655063 33.14805384 -24.09343149 13.40431335 -16.6484375 1.9140625 C-11.79671792 -2.57442673 -5.90969785 -1.43265403 0 0 Z M-9 18 C-11.310121 23.44528521 -13.14205414 29.13736995 -14 35 C-14.185625 36.175625 -14.37125 37.35125 -14.5625 38.5625 C-14.57477564 44.95810735 -9.65203427 50.10888268 -6 55 C-5.01 54.505 -5.01 54.505 -4 54 C-3.34444881 51.47266765 -3.34444881 51.47266765 -3 49 C-2.34 49 -1.68 49 -1 49 C0.02831468 41.16257462 1.00925092 32.51089458 -2 25 C-4.48728917 23.79453323 -4.48728917 23.79453323 -7 23 C-7.8125 20.375 -7.8125 20.375 -8 18 C-8.33 18 -8.66 18 -9 18 Z " fill="#E5E5E5" transform="translate(271,1)"/>
<path d="M0 0 C2.9375 -0.1875 2.9375 -0.1875 6 0 C6.99 0 7.98 0 9 0 C9.99 0 10.98 0 12 0 C12 0.99 12 1.98 12 3 C12.66 3 13.32 3 14 3 C21.25466765 18.57728129 21.25466765 18.57728129 20.9375 25.4375 C20.74331749 30.44740884 21.80353529 34.80402586 23 39.625 C25.00721014 47.95907644 26.39488929 56.44604654 25 65 C23.09375 67.4453125 23.09375 67.4453125 21 69 C20.34 69 19.68 69 19 69 C18.67 67.35 18.34 65.7 18 64 C16.68 63.67 15.36 63.34 14 63 C13.87625 62.030625 13.7525 61.06125 13.625 60.0625 C13.41875 59.051875 13.2125 58.04125 13 57 C12.34 56.67 11.68 56.34 11 56 C10.27306096 54.02111039 9.60183749 52.02045442 9 50 C7.515 50.495 7.515 50.495 6 51 C5.67 51.99 5.34 52.98 5 54 C4.34 54 3.68 54 3 54 C3 58.62 3 63.24 3 68 C2.01 68.495 2.01 68.495 1 69 C-0.175625 68.2265625 -0.175625 68.2265625 -1.375 67.4375 C-2.24125 66.963125 -3.1075 66.48875 -4 66 C-6.15561195 66.84838094 -6.15561195 66.84838094 -8 68 C-10.52575046 50.3197468 -8.83778606 36.77006692 -0.6015625 20.83203125 C0.15706517 18.52166518 -0.17813157 17.25772092 -1 15 C-1.33 14.67 -1.66 14.34 -2 14 C-2.12524459 12.21162378 -2.17573676 10.41771786 -2.1875 8.625 C-2.20167969 7.64789062 -2.21585938 6.67078125 -2.23046875 5.6640625 C-2 3 -2 3 0 0 Z M8 22 C6.08373163 26.98229776 5.4452885 31.72684667 5 37 C6.98 37 8.96 37 11 37 C12.01603857 31.20858017 11.96263236 27.5415502 10 22 C9.34 22 8.68 22 8 22 Z " fill="#E5E5E5" transform="translate(145,1)"/>
<path d="M0 0 C5.84647111 8.51427832 6.31433786 19.42824174 6.1875 29.375 C6.18685547 30.35855469 6.18621094 31.34210937 6.18554688 32.35546875 C6.14109321 39.57672038 6.14109321 39.57672038 5 43 C8.24170493 41.30356244 8.24170493 41.30356244 8.82788086 38.16186523 C9.03807861 36.97278564 9.24827637 35.78370605 9.46484375 34.55859375 C9.58428848 33.91688736 9.70373322 33.27518097 9.82679749 32.61402893 C10.20905926 30.55716922 10.57502758 28.49793295 10.9375 26.4375 C14.28215748 7.49045515 14.28215748 7.49045515 18 2 C20.75 0.9375 20.75 0.9375 23 1 C25.12446403 4.45225404 25.22665053 6.98780334 25 11 C24.42757223 13.14593852 23.77780269 15.27236647 23.0625 17.375 C21.81695366 21.19467545 20.75791196 24.74748633 20.375 28.75 C20.189375 30.35875 20.189375 30.35875 20 32 C19.01 32.495 19.01 32.495 18 33 C17.48633684 34.97947139 17.48633684 34.97947139 17.25390625 37.375 C17.13853516 38.27863281 17.02316406 39.18226562 16.90429688 40.11328125 C16.68013524 42.00648636 16.45617008 43.89971474 16.23242188 45.79296875 C14.39229518 60.20898896 14.39229518 60.20898896 10.125 65.1875 C8 66 8 66 5.4375 65.3125 C3 64 3 64 0 62 C-0.40881222 59.93442246 -0.43812282 57.97741225 -0.49609375 55.875 C-0.82758134 53.78493305 -0.82758134 53.78493305 -3.03515625 52.75 C-3.68355469 52.5025 -4.33195313 52.255 -5 52 C-4.98259766 51.01773438 -4.98259766 51.01773438 -4.96484375 50.015625 C-4.93511676 47.00895202 -4.9592209 44.00653207 -5 41 C-5.00386719 40.10925781 -5.00773438 39.21851563 -5.01171875 38.30078125 C-5.33583545 30.46609823 -7.50483502 23.46715844 -10.09228516 16.11743164 C-12.23542229 9.67851489 -12.07147328 6.14294656 -9 0 C-5.2787298 -1.2404234 -3.70022566 -1.35926657 0 0 Z " fill="#E2E2E2" transform="translate(220,2)"/>
<path d="M0 0 C0 3.71820915 -0.21906107 7.41479839 -0.4375 11.125 C-0.49647461 12.23681641 -0.49647461 12.23681641 -0.55664062 13.37109375 C-0.8842019 18.8842019 -0.8842019 18.8842019 -2 20 C-3.66617115 20.04063832 -5.33388095 20.042721 -7 20 C-7.33 19.34 -7.66 18.68 -8 18 C-6.35 18.33 -4.7 18.66 -3 19 C-3 13.06 -3 7.12 -3 1 C-2.01 0.67 -1.02 0.34 0 0 Z " fill="#696969" transform="translate(189,49)"/>
<path d="M0 0 C0.66 0 1.32 0 2 0 C2 0.99 2 1.98 2 3 C1.34 3 0.68 3 0 3 C0 7.62 0 12.24 0 17 C-0.66 17.33 -1.32 17.66 -2 18 C-3.32 16.68 -4.64 15.36 -6 14 C-5.01 14 -4.02 14 -3 14 C-2.86722656 13.15695313 -2.73445312 12.31390625 -2.59765625 11.4453125 C-2.42105469 10.34960938 -2.24445313 9.25390625 -2.0625 8.125 C-1.88847656 7.03445312 -1.71445313 5.94390625 -1.53515625 4.8203125 C-1 2 -1 2 0 0 Z " fill="#7A7A7A" transform="translate(148,52)"/>
<path d="M0 0 C0.33 0 0.66 0 1 0 C1.42765417 6.41481258 -0.14256832 11.88595404 -2 18 C-2.33 18 -2.66 18 -3 18 C-3.36517527 11.42684522 -2.13619737 6.20514474 0 0 Z " fill="#4D4D4D" transform="translate(235,45)"/>
<path d="M0 0 C0.66 1.32 1.32 2.64 2 4 C2.99 4 3.98 4 5 4 C5 4.66 5 5.32 5 6 C5.66 6 6.32 6 7 6 C7 7.65 7 9.3 7 11 C6.67 10.34 6.34 9.68 6 9 C5.34 9 4.68 9 4 9 C0.88002198 5.69649386 0 4.67590167 0 0 Z " fill="#727272" transform="translate(270,1)"/>
<path d="M0 0 C1.32 0 2.64 0 4 0 C4 0.66 4 1.32 4 2 C4.66 2 5.32 2 6 2 C8.09230769 6.43076923 8.09230769 6.43076923 7.625 9.3125 C7.41875 9.869375 7.2125 10.42625 7 11 C4 5 4 5 2.9375 2.6875 C2.10678318 0.81810662 2.10678318 0.81810662 0 0 Z " fill="#7D7D7D" transform="translate(194,35)"/>
<path d="M0 0 C2 1.3125 2 1.3125 4 3 C4 3.99 4 4.98 4 6 C2.02 6.99 2.02 6.99 0 8 C0 5.36 0 2.72 0 0 Z " fill="#AFAFAF" transform="translate(137,61)"/>
<path d="M0 0 C1.60080151 4.00200378 0.29279692 7.04556236 -1 11 C-1.33 11 -1.66 11 -2 11 C-2.25 3.375 -2.25 3.375 0 0 Z " fill="#4E4E4E" transform="translate(242,15)"/>
<path d="M0 0 C0 0.66 0 1.32 0 2 C-2.2727675 3.49524178 -4.5679943 4.78399715 -7 6 C-6.67 4.35 -6.34 2.7 -6 1 C-3.92446352 0.4465236 -2.15634036 0 0 0 Z " fill="#D6D6D6" transform="translate(182,2)"/>
</svg>
